<svg width="501" height="177" viewBox="0 0 501 177" fill="none" xmlns="http://www.w3.org/2000/svg">
<path d="M127.416 78.077C147.915 65.91 141.763 47.0122 136.338 38.6602C127.179 60.7795 100.655 54.6611 90.8797 58.079C83.9382 59.9308 74.144 65.4372 68.2621 70.3628C66.9883 71.4296 63.7166 73.7745 63.8775 75.2362C64.3581 77.8857 67.1901 77.61 69.4771 76.1729C76.3048 71.8823 93.6728 63.7922 107.888 66.8517C122.903 72.1052 107.372 76.5958 102.019 82.1905C97.8241 88.6336 101.634 93.2884 103.672 91.356C111.364 82.3594 114.775 85.9633 127.416 78.077Z" fill="#FF2E6B"/>
<path d="M64.5838 98.4083C44.0856 110.575 50.2369 129.473 55.6621 137.825C64.8216 115.706 91.3454 121.824 101.12 118.406C108.062 116.555 117.856 111.048 123.738 106.123C125.012 105.056 128.284 102.711 128.123 101.249C127.642 98.5996 124.81 98.8753 122.523 100.312C115.695 104.603 98.3274 112.693 84.1121 109.634C69.0972 104.38 84.6284 99.8895 89.9814 94.2948C94.1761 87.8518 90.3659 83.197 88.3285 85.1294C80.6361 94.1259 77.225 90.5221 64.5838 98.4083Z" fill="#F4AE0B"/>
<path d="M453.598 107.29C450.725 107.29 448.146 106.465 445.86 104.814C443.575 103.147 441.765 100.886 440.432 98.0284C439.114 95.1554 438.456 91.9252 438.456 88.3379C438.456 84.7347 439.114 81.5046 440.432 78.6474C441.765 75.7903 443.575 73.5363 445.86 71.8855C448.146 70.2188 450.725 69.3855 453.598 69.3855C456.471 69.3855 459.043 70.2188 461.313 71.8855C463.598 73.5522 465.408 75.8141 466.741 78.6712C468.075 81.5284 468.741 84.7506 468.741 88.3379C468.741 91.9252 468.075 95.1554 466.741 98.0284C465.424 100.886 463.622 103.147 461.336 104.814C459.051 106.465 456.471 107.29 453.598 107.29ZM453.598 105.766C456.186 105.766 458.503 105.005 460.551 103.481C462.614 101.957 464.241 99.8776 465.432 97.2427C466.622 94.6077 467.217 91.6395 467.217 88.3379C467.217 85.0363 466.614 82.076 465.408 79.4569C464.217 76.822 462.598 74.7426 460.551 73.2188C458.503 71.6792 456.186 70.9093 453.598 70.9093C451.027 70.9093 448.709 71.6792 446.646 73.2188C444.598 74.7426 442.971 76.822 441.765 79.4569C440.575 82.076 439.979 85.0363 439.979 88.3379C439.979 91.6395 440.575 94.6077 441.765 97.2427C442.956 99.8776 444.575 101.957 446.622 103.481C448.686 105.005 451.011 105.766 453.598 105.766Z" fill="#FF2E6B"/>
<path d="M401.18 82.8141V106.528H398.276V57.7665H401.18V75.7427H401.466C402.323 73.8379 403.688 72.3221 405.561 71.1951C407.45 70.0522 409.712 69.4808 412.347 69.4808C414.807 69.4808 416.974 70.0046 418.847 71.0522C420.72 72.084 422.18 73.5681 423.228 75.5046C424.291 77.4252 424.823 79.7268 424.823 82.4094V106.528H421.942V82.5284C421.942 79.4014 421.014 76.8935 419.157 75.0046C417.299 73.1157 414.847 72.1713 411.799 72.1713C409.752 72.1713 407.926 72.6157 406.323 73.5046C404.72 74.3935 403.458 75.6395 402.537 77.2427C401.633 78.83 401.18 80.6871 401.18 82.8141Z" fill="#FF2E6B"/>
<path d="M359.905 83.6712V106.528H355.667V69.9569H359.786V75.695H360.167C361.024 73.822 362.357 72.322 364.167 71.195C365.992 70.0521 368.246 69.4807 370.929 69.4807C373.389 69.4807 375.548 69.9966 377.405 71.0283C379.278 72.0442 380.73 73.5442 381.762 75.5283C382.809 77.5125 383.333 79.949 383.333 82.8379V106.528H379.095V83.0998C379.095 80.0998 378.254 77.7268 376.571 75.9807C374.905 74.2347 372.667 73.3617 369.857 73.3617C367.936 73.3617 366.23 73.7744 364.738 74.5998C363.246 75.4252 362.063 76.6156 361.19 78.1712C360.333 79.7109 359.905 81.5442 359.905 83.6712Z" fill="#FF2E6B"/>
<path d="M335.952 106.528V69.957H341.571V106.528H335.952ZM338.809 63.8617C337.714 63.8617 336.769 63.4887 335.976 62.7427C335.198 61.9966 334.809 61.0998 334.809 60.0522C334.809 59.0046 335.198 58.1078 335.976 57.3617C336.769 56.6157 337.714 56.2427 338.809 56.2427C339.904 56.2427 340.841 56.6157 341.618 57.3617C342.412 58.1078 342.809 59.0046 342.809 60.0522C342.809 61.0998 342.412 61.9966 341.618 62.7427C340.841 63.4887 339.904 63.8617 338.809 63.8617Z" fill="#FF2E6B"/>
<path d="M290.862 120.243V69.9569H297.814V75.8855H298.409C298.822 75.1236 299.417 74.2426 300.195 73.2426C300.973 72.2426 302.052 71.3696 303.433 70.6236C304.814 69.8617 306.639 69.4807 308.909 69.4807C311.862 69.4807 314.497 70.2267 316.814 71.7188C319.132 73.2109 320.949 75.3617 322.266 78.1712C323.6 80.9807 324.266 84.3617 324.266 88.3141C324.266 92.2664 323.608 95.6553 322.29 98.4807C320.973 101.29 319.163 103.457 316.862 104.981C314.56 106.489 311.933 107.243 308.981 107.243C306.759 107.243 304.941 106.87 303.528 106.124C302.132 105.378 301.036 104.505 300.243 103.505C299.449 102.505 298.838 101.616 298.409 100.838H297.981V120.243H290.862ZM297.838 88.2426C297.838 90.8141 298.211 93.068 298.957 95.0045C299.703 96.9411 300.782 98.4569 302.195 99.5522C303.608 100.632 305.338 101.171 307.385 101.171C309.512 101.171 311.29 100.608 312.719 99.4807C314.147 98.3379 315.227 96.7903 315.957 94.8379C316.703 92.8855 317.076 90.6871 317.076 88.2426C317.076 85.8299 316.711 83.6633 315.981 81.7426C315.266 79.822 314.187 78.3061 312.743 77.195C311.314 76.0839 309.528 75.5283 307.385 75.5283C305.322 75.5283 303.576 76.0601 302.147 77.1236C300.735 78.1871 299.663 79.6712 298.933 81.576C298.203 83.4807 297.838 85.703 297.838 88.2426Z" fill="#FF2E6B"/>
<path d="M278.289 57.7665V106.528H269.67V57.7665H278.289Z" fill="#FF2E6B"/>
<path d="M242.531 107.243C238.769 107.243 235.531 106.481 232.816 104.957C230.118 103.417 228.039 101.243 226.578 98.4331C225.118 95.6077 224.388 92.2665 224.388 88.4093C224.388 84.6474 225.118 81.3458 226.578 78.5045C228.039 75.6633 230.094 73.449 232.745 71.8617C235.412 70.2744 238.539 69.4807 242.126 69.4807C244.539 69.4807 246.785 69.8696 248.864 70.6474C250.959 71.4093 252.785 72.5601 254.34 74.0998C255.912 75.6394 257.134 77.576 258.007 79.9093C258.88 82.2268 259.316 84.941 259.316 88.0522V90.8379H228.435V84.5522H249.769C249.769 83.0918 249.451 81.7982 248.816 80.6712C248.182 79.5442 247.301 78.6633 246.174 78.0283C245.063 77.3775 243.769 77.0521 242.293 77.0521C240.753 77.0521 239.388 77.4093 238.197 78.1236C237.023 78.822 236.102 79.7664 235.436 80.9569C234.769 82.1315 234.428 83.441 234.412 84.8855V90.8617C234.412 92.6712 234.745 94.2347 235.412 95.5522C236.094 96.8696 237.055 97.8855 238.293 98.5998C239.531 99.3141 240.999 99.6712 242.697 99.6712C243.824 99.6712 244.856 99.5125 245.793 99.195C246.729 98.8776 247.531 98.4014 248.197 97.7665C248.864 97.1315 249.372 96.3538 249.721 95.4331L259.102 96.0522C258.626 98.3061 257.65 100.274 256.174 101.957C254.713 103.624 252.824 104.925 250.507 105.862C248.205 106.782 245.547 107.243 242.531 107.243Z" fill="#FF2E6B"/>
<path d="M172 106.528V57.7665H183.786V77.3379H203V57.7665H214.762V106.528H203V86.9332H183.786V106.528H172Z" fill="#FF2E6B"/>
</svg>
