<svg width="472" height="448" viewBox="0 0 472 448" fill="none" xmlns="http://www.w3.org/2000/svg">
<path d="M375.893 178.156C467.168 123.74 439.777 39.221 415.62 1.86731C374.834 100.794 256.728 73.4301 213.201 88.7165C182.291 96.9987 138.679 121.626 112.488 143.655C106.816 148.426 92.2477 158.913 92.9641 165.451C95.104 177.301 107.715 176.068 117.898 169.64C148.301 150.451 225.638 114.268 288.936 127.952C355.796 151.448 286.637 171.532 262.801 196.553C244.123 225.37 261.089 246.188 270.161 237.545C304.415 197.309 319.604 213.427 375.893 178.156Z" fill="#FF2E6B"/>
<path d="M96.1089 269.086C4.83362 323.503 32.2245 408.022 56.3822 445.375C97.1677 346.448 215.274 373.813 258.801 358.526C289.711 350.244 333.323 325.617 359.514 303.588C365.186 298.817 379.754 288.329 379.038 281.792C376.898 269.942 364.287 271.175 354.104 277.603C323.701 296.792 246.364 332.974 183.066 319.291C116.206 295.795 185.365 275.711 209.201 250.689C227.879 221.873 210.913 201.055 201.841 209.697C167.587 249.934 152.398 233.816 96.1089 269.086Z" fill="#F4AE0B"/>
</svg>
